<?xml version="1.0" encoding="utf-8" standalone="no"?>
<!DOCTYPE svg PUBLIC "-//W3C//DTD SVG 1.1//EN"
  "http://www.w3.org/Graphics/SVG/1.1/DTD/svg11.dtd">
<svg xmlns:xlink="http://www.w3.org/1999/xlink" width="568.636562pt" height="353.121625pt" viewBox="0 0 568.636562 353.121625" xmlns="http://www.w3.org/2000/svg" version="1.1">
 <metadata>
  <rdf:RDF xmlns:dc="http://purl.org/dc/elements/1.1/" xmlns:cc="http://creativecommons.org/ns#" xmlns:rdf="http://www.w3.org/1999/02/22-rdf-syntax-ns#">
   <cc:Work>
    <dc:type rdf:resource="http://purl.org/dc/dcmitype/StillImage"/>
    <dc:date>2026-05-29T21:30:07.361027</dc:date>
    <dc:format>image/svg+xml</dc:format>
    <dc:creator>
     <cc:Agent>
      <dc:title>Matplotlib v3.5.2, https://matplotlib.org/</dc:title>
     </cc:Agent>
    </dc:creator>
   </cc:Work>
  </rdf:RDF>
 </metadata>
 <defs>
  <style type="text/css">*{stroke-linejoin: round; stroke-linecap: butt}</style>
 </defs>
 <g id="figure_1">
  <g id="patch_1">
   <path d="M 0 353.121625 
L 568.636562 353.121625 
L 568.636562 0 
L 0 0 
z
" style="fill: #ffffff"/>
  </g>
  <g id="axes_1">
   <g id="patch_2">
    <path d="M 130.676562 327.307875 
L 561.436562 327.307875 
L 561.436562 33.875875 
L 130.676562 33.875875 
z
" style="fill: #ffffff"/>
   </g>
   <g id="patch_3">
    <path d="M 130.676562 327.307875 
L 346.056562 327.307875 
L 346.056562 253.949875 
L 130.676562 253.949875 
z
" clip-path="url(#p207f3721e8)" style="fill: #a8d5a8; stroke: #000000; stroke-linejoin: miter"/>
   </g>
   <g id="patch_4">
    <path d="M 346.056562 327.307875 
L 561.436562 327.307875 
L 561.436562 253.949875 
L 346.056562 253.949875 
z
" clip-path="url(#p207f3721e8)" style="fill: #a8d5a8; stroke: #000000; stroke-linejoin: miter"/>
   </g>
   <g id="patch_5">
    <path d="M 130.676562 253.949875 
L 346.056562 253.949875 
L 346.056562 180.591875 
L 130.676562 180.591875 
z
" clip-path="url(#p207f3721e8)" style="fill: #a8d5a8; stroke: #000000; stroke-linejoin: miter"/>
   </g>
   <g id="patch_6">
    <path d="M 346.056562 253.949875 
L 561.436562 253.949875 
L 561.436562 180.591875 
L 346.056562 180.591875 
z
" clip-path="url(#p207f3721e8)" style="fill: #f4a8a8; stroke: #000000; stroke-linejoin: miter"/>
   </g>
   <g id="patch_7">
    <path d="M 130.676562 180.591875 
L 346.056562 180.591875 
L 346.056562 107.233875 
L 130.676562 107.233875 
z
" clip-path="url(#p207f3721e8)" style="fill: #a8d5a8; stroke: #000000; stroke-linejoin: miter"/>
   </g>
   <g id="patch_8">
    <path d="M 346.056562 180.591875 
L 561.436562 180.591875 
L 561.436562 107.233875 
L 346.056562 107.233875 
z
" clip-path="url(#p207f3721e8)" style="fill: #a8d5a8; stroke: #000000; stroke-linejoin: miter"/>
   </g>
   <g id="patch_9">
    <path d="M 130.676562 107.233875 
L 346.056562 107.233875 
L 346.056562 33.875875 
L 130.676562 33.875875 
z
" clip-path="url(#p207f3721e8)" style="fill: #a8d5a8; stroke: #000000; stroke-linejoin: miter"/>
   </g>
   <g id="patch_10">
    <path d="M 346.056562 107.233875 
L 561.436562 107.233875 
L 561.436562 33.875875 
L 346.056562 33.875875 
z
" clip-path="url(#p207f3721e8)" style="fill: #a8d5a8; stroke: #000000; stroke-linejoin: miter"/>
   </g>
   <g id="matplotlib.axis_1">
    <g id="xtick_1">
     <g id="line2d_1">
      <defs>
       <path id="m5bb08ba1e8" d="M 0 0 
L 0 3.5 
" style="stroke: #000000; stroke-width: 0.8"/>
      </defs>
      <g>
       <use xlink:href="#m5bb08ba1e8" x="238.366562" y="327.307875" style="stroke: #000000; stroke-width: 0.8"/>
      </g>
     </g>
     <g id="text_1">
      <!-- STATIC packet -->
      <g transform="translate(196.10125 343.426)scale(0.12 -0.12)">
       <defs>
        <path id="DejaVuSans-53" d="M 3425 4513 
L 3425 3897 
Q 3066 4069 2747 4153 
Q 2428 4238 2131 4238 
Q 1616 4238 1336 4038 
Q 1056 3838 1056 3469 
Q 1056 3159 1242 3001 
Q 1428 2844 1947 2747 
L 2328 2669 
Q 3034 2534 3370 2195 
Q 3706 1856 3706 1288 
Q 3706 609 3251 259 
Q 2797 -91 1919 -91 
Q 1588 -91 1214 -16 
Q 841 59 441 206 
L 441 856 
Q 825 641 1194 531 
Q 1563 422 1919 422 
Q 2459 422 2753 634 
Q 3047 847 3047 1241 
Q 3047 1584 2836 1778 
Q 2625 1972 2144 2069 
L 1759 2144 
Q 1053 2284 737 2584 
Q 422 2884 422 3419 
Q 422 4038 858 4394 
Q 1294 4750 2059 4750 
Q 2388 4750 2728 4690 
Q 3069 4631 3425 4513 
z
" transform="scale(0.015625)"/>
        <path id="DejaVuSans-54" d="M -19 4666 
L 3928 4666 
L 3928 4134 
L 2272 4134 
L 2272 0 
L 1638 0 
L 1638 4134 
L -19 4134 
L -19 4666 
z
" transform="scale(0.015625)"/>
        <path id="DejaVuSans-41" d="M 2188 4044 
L 1331 1722 
L 3047 1722 
L 2188 4044 
z
M 1831 4666 
L 2547 4666 
L 4325 0 
L 3669 0 
L 3244 1197 
L 1141 1197 
L 716 0 
L 50 0 
L 1831 4666 
z
" transform="scale(0.015625)"/>
        <path id="DejaVuSans-49" d="M 628 4666 
L 1259 4666 
L 1259 0 
L 628 0 
L 628 4666 
z
" transform="scale(0.015625)"/>
        <path id="DejaVuSans-43" d="M 4122 4306 
L 4122 3641 
Q 3803 3938 3442 4084 
Q 3081 4231 2675 4231 
Q 1875 4231 1450 3742 
Q 1025 3253 1025 2328 
Q 1025 1406 1450 917 
Q 1875 428 2675 428 
Q 3081 428 3442 575 
Q 3803 722 4122 1019 
L 4122 359 
Q 3791 134 3420 21 
Q 3050 -91 2638 -91 
Q 1578 -91 968 557 
Q 359 1206 359 2328 
Q 359 3453 968 4101 
Q 1578 4750 2638 4750 
Q 3056 4750 3426 4639 
Q 3797 4528 4122 4306 
z
" transform="scale(0.015625)"/>
        <path id="DejaVuSans-20" transform="scale(0.015625)"/>
        <path id="DejaVuSans-70" d="M 1159 525 
L 1159 -1331 
L 581 -1331 
L 581 3500 
L 1159 3500 
L 1159 2969 
Q 1341 3281 1617 3432 
Q 1894 3584 2278 3584 
Q 2916 3584 3314 3078 
Q 3713 2572 3713 1747 
Q 3713 922 3314 415 
Q 2916 -91 2278 -91 
Q 1894 -91 1617 61 
Q 1341 213 1159 525 
z
M 3116 1747 
Q 3116 2381 2855 2742 
Q 2594 3103 2138 3103 
Q 1681 3103 1420 2742 
Q 1159 2381 1159 1747 
Q 1159 1113 1420 752 
Q 1681 391 2138 391 
Q 2594 391 2855 752 
Q 3116 1113 3116 1747 
z
" transform="scale(0.015625)"/>
        <path id="DejaVuSans-61" d="M 2194 1759 
Q 1497 1759 1228 1600 
Q 959 1441 959 1056 
Q 959 750 1161 570 
Q 1363 391 1709 391 
Q 2188 391 2477 730 
Q 2766 1069 2766 1631 
L 2766 1759 
L 2194 1759 
z
M 3341 1997 
L 3341 0 
L 2766 0 
L 2766 531 
Q 2569 213 2275 61 
Q 1981 -91 1556 -91 
Q 1019 -91 701 211 
Q 384 513 384 1019 
Q 384 1609 779 1909 
Q 1175 2209 1959 2209 
L 2766 2209 
L 2766 2266 
Q 2766 2663 2505 2880 
Q 2244 3097 1772 3097 
Q 1472 3097 1187 3025 
Q 903 2953 641 2809 
L 641 3341 
Q 956 3463 1253 3523 
Q 1550 3584 1831 3584 
Q 2591 3584 2966 3190 
Q 3341 2797 3341 1997 
z
" transform="scale(0.015625)"/>
        <path id="DejaVuSans-63" d="M 3122 3366 
L 3122 2828 
Q 2878 2963 2633 3030 
Q 2388 3097 2138 3097 
Q 1578 3097 1268 2742 
Q 959 2388 959 1747 
Q 959 1106 1268 751 
Q 1578 397 2138 397 
Q 2388 397 2633 464 
Q 2878 531 3122 666 
L 3122 134 
Q 2881 22 2623 -34 
Q 2366 -91 2075 -91 
Q 1284 -91 818 406 
Q 353 903 353 1747 
Q 353 2603 823 3093 
Q 1294 3584 2113 3584 
Q 2378 3584 2631 3529 
Q 2884 3475 3122 3366 
z
" transform="scale(0.015625)"/>
        <path id="DejaVuSans-6b" d="M 581 4863 
L 1159 4863 
L 1159 1991 
L 2875 3500 
L 3609 3500 
L 1753 1863 
L 3688 0 
L 2938 0 
L 1159 1709 
L 1159 0 
L 581 0 
L 581 4863 
z
" transform="scale(0.015625)"/>
        <path id="DejaVuSans-65" d="M 3597 1894 
L 3597 1613 
L 953 1613 
Q 991 1019 1311 708 
Q 1631 397 2203 397 
Q 2534 397 2845 478 
Q 3156 559 3463 722 
L 3463 178 
Q 3153 47 2828 -22 
Q 2503 -91 2169 -91 
Q 1331 -91 842 396 
Q 353 884 353 1716 
Q 353 2575 817 3079 
Q 1281 3584 2069 3584 
Q 2775 3584 3186 3129 
Q 3597 2675 3597 1894 
z
M 3022 2063 
Q 3016 2534 2758 2815 
Q 2500 3097 2075 3097 
Q 1594 3097 1305 2825 
Q 1016 2553 972 2059 
L 3022 2063 
z
" transform="scale(0.015625)"/>
        <path id="DejaVuSans-74" d="M 1172 4494 
L 1172 3500 
L 2356 3500 
L 2356 3053 
L 1172 3053 
L 1172 1153 
Q 1172 725 1289 603 
Q 1406 481 1766 481 
L 2356 481 
L 2356 0 
L 1766 0 
Q 1100 0 847 248 
Q 594 497 594 1153 
L 594 3053 
L 172 3053 
L 172 3500 
L 594 3500 
L 594 4494 
L 1172 4494 
z
" transform="scale(0.015625)"/>
       </defs>
       <use xlink:href="#DejaVuSans-53"/>
       <use xlink:href="#DejaVuSans-54" x="63.476562"/>
       <use xlink:href="#DejaVuSans-41" x="116.810547"/>
       <use xlink:href="#DejaVuSans-54" x="177.46875"/>
       <use xlink:href="#DejaVuSans-49" x="238.552734"/>
       <use xlink:href="#DejaVuSans-43" x="268.044922"/>
       <use xlink:href="#DejaVuSans-20" x="337.869141"/>
       <use xlink:href="#DejaVuSans-70" x="369.65625"/>
       <use xlink:href="#DejaVuSans-61" x="433.132812"/>
       <use xlink:href="#DejaVuSans-63" x="494.412109"/>
       <use xlink:href="#DejaVuSans-6b" x="549.392578"/>
       <use xlink:href="#DejaVuSans-65" x="603.677734"/>
       <use xlink:href="#DejaVuSans-74" x="665.201172"/>
      </g>
     </g>
    </g>
    <g id="xtick_2">
     <g id="line2d_2">
      <g>
       <use xlink:href="#m5bb08ba1e8" x="453.746562" y="327.307875" style="stroke: #000000; stroke-width: 0.8"/>
      </g>
     </g>
     <g id="text_2">
      <!-- GROUNDED packet -->
      <g transform="translate(396.30125 343.426)scale(0.12 -0.12)">
       <defs>
        <path id="DejaVuSans-47" d="M 3809 666 
L 3809 1919 
L 2778 1919 
L 2778 2438 
L 4434 2438 
L 4434 434 
Q 4069 175 3628 42 
Q 3188 -91 2688 -91 
Q 1594 -91 976 548 
Q 359 1188 359 2328 
Q 359 3472 976 4111 
Q 1594 4750 2688 4750 
Q 3144 4750 3555 4637 
Q 3966 4525 4313 4306 
L 4313 3634 
Q 3963 3931 3569 4081 
Q 3175 4231 2741 4231 
Q 1884 4231 1454 3753 
Q 1025 3275 1025 2328 
Q 1025 1384 1454 906 
Q 1884 428 2741 428 
Q 3075 428 3337 486 
Q 3600 544 3809 666 
z
" transform="scale(0.015625)"/>
        <path id="DejaVuSans-52" d="M 2841 2188 
Q 3044 2119 3236 1894 
Q 3428 1669 3622 1275 
L 4263 0 
L 3584 0 
L 2988 1197 
Q 2756 1666 2539 1819 
Q 2322 1972 1947 1972 
L 1259 1972 
L 1259 0 
L 628 0 
L 628 4666 
L 2053 4666 
Q 2853 4666 3247 4331 
Q 3641 3997 3641 3322 
Q 3641 2881 3436 2590 
Q 3231 2300 2841 2188 
z
M 1259 4147 
L 1259 2491 
L 2053 2491 
Q 2509 2491 2742 2702 
Q 2975 2913 2975 3322 
Q 2975 3731 2742 3939 
Q 2509 4147 2053 4147 
L 1259 4147 
z
" transform="scale(0.015625)"/>
        <path id="DejaVuSans-4f" d="M 2522 4238 
Q 1834 4238 1429 3725 
Q 1025 3213 1025 2328 
Q 1025 1447 1429 934 
Q 1834 422 2522 422 
Q 3209 422 3611 934 
Q 4013 1447 4013 2328 
Q 4013 3213 3611 3725 
Q 3209 4238 2522 4238 
z
M 2522 4750 
Q 3503 4750 4090 4092 
Q 4678 3434 4678 2328 
Q 4678 1225 4090 567 
Q 3503 -91 2522 -91 
Q 1538 -91 948 565 
Q 359 1222 359 2328 
Q 359 3434 948 4092 
Q 1538 4750 2522 4750 
z
" transform="scale(0.015625)"/>
        <path id="DejaVuSans-55" d="M 556 4666 
L 1191 4666 
L 1191 1831 
Q 1191 1081 1462 751 
Q 1734 422 2344 422 
Q 2950 422 3222 751 
Q 3494 1081 3494 1831 
L 3494 4666 
L 4128 4666 
L 4128 1753 
Q 4128 841 3676 375 
Q 3225 -91 2344 -91 
Q 1459 -91 1007 375 
Q 556 841 556 1753 
L 556 4666 
z
" transform="scale(0.015625)"/>
        <path id="DejaVuSans-4e" d="M 628 4666 
L 1478 4666 
L 3547 763 
L 3547 4666 
L 4159 4666 
L 4159 0 
L 3309 0 
L 1241 3903 
L 1241 0 
L 628 0 
L 628 4666 
z
" transform="scale(0.015625)"/>
        <path id="DejaVuSans-44" d="M 1259 4147 
L 1259 519 
L 2022 519 
Q 2988 519 3436 956 
Q 3884 1394 3884 2338 
Q 3884 3275 3436 3711 
Q 2988 4147 2022 4147 
L 1259 4147 
z
M 628 4666 
L 1925 4666 
Q 3281 4666 3915 4102 
Q 4550 3538 4550 2338 
Q 4550 1131 3912 565 
Q 3275 0 1925 0 
L 628 0 
L 628 4666 
z
" transform="scale(0.015625)"/>
        <path id="DejaVuSans-45" d="M 628 4666 
L 3578 4666 
L 3578 4134 
L 1259 4134 
L 1259 2753 
L 3481 2753 
L 3481 2222 
L 1259 2222 
L 1259 531 
L 3634 531 
L 3634 0 
L 628 0 
L 628 4666 
z
" transform="scale(0.015625)"/>
       </defs>
       <use xlink:href="#DejaVuSans-47"/>
       <use xlink:href="#DejaVuSans-52" x="77.490234"/>
       <use xlink:href="#DejaVuSans-4f" x="146.972656"/>
       <use xlink:href="#DejaVuSans-55" x="225.683594"/>
       <use xlink:href="#DejaVuSans-4e" x="298.876953"/>
       <use xlink:href="#DejaVuSans-44" x="373.681641"/>
       <use xlink:href="#DejaVuSans-45" x="450.683594"/>
       <use xlink:href="#DejaVuSans-44" x="513.867188"/>
       <use xlink:href="#DejaVuSans-20" x="590.869141"/>
       <use xlink:href="#DejaVuSans-70" x="622.65625"/>
       <use xlink:href="#DejaVuSans-61" x="686.132812"/>
       <use xlink:href="#DejaVuSans-63" x="747.412109"/>
       <use xlink:href="#DejaVuSans-6b" x="802.392578"/>
       <use xlink:href="#DejaVuSans-65" x="856.677734"/>
       <use xlink:href="#DejaVuSans-74" x="918.201172"/>
      </g>
     </g>
    </g>
   </g>
   <g id="matplotlib.axis_2">
    <g id="ytick_1">
     <g id="line2d_3">
      <defs>
       <path id="mc159cbebe4" d="M 0 0 
L -3.5 0 
" style="stroke: #000000; stroke-width: 0.8"/>
      </defs>
      <g>
       <use xlink:href="#mc159cbebe4" x="130.676562" y="290.628875" style="stroke: #000000; stroke-width: 0.8"/>
      </g>
     </g>
     <g id="text_3">
      <!-- Idea Shops -->
      <g transform="translate(68.55625 289.589031)scale(0.1 -0.1)">
       <defs>
        <path id="DejaVuSans-64" d="M 2906 2969 
L 2906 4863 
L 3481 4863 
L 3481 0 
L 2906 0 
L 2906 525 
Q 2725 213 2448 61 
Q 2172 -91 1784 -91 
Q 1150 -91 751 415 
Q 353 922 353 1747 
Q 353 2572 751 3078 
Q 1150 3584 1784 3584 
Q 2172 3584 2448 3432 
Q 2725 3281 2906 2969 
z
M 947 1747 
Q 947 1113 1208 752 
Q 1469 391 1925 391 
Q 2381 391 2643 752 
Q 2906 1113 2906 1747 
Q 2906 2381 2643 2742 
Q 2381 3103 1925 3103 
Q 1469 3103 1208 2742 
Q 947 2381 947 1747 
z
" transform="scale(0.015625)"/>
        <path id="DejaVuSans-68" d="M 3513 2113 
L 3513 0 
L 2938 0 
L 2938 2094 
Q 2938 2591 2744 2837 
Q 2550 3084 2163 3084 
Q 1697 3084 1428 2787 
Q 1159 2491 1159 1978 
L 1159 0 
L 581 0 
L 581 4863 
L 1159 4863 
L 1159 2956 
Q 1366 3272 1645 3428 
Q 1925 3584 2291 3584 
Q 2894 3584 3203 3211 
Q 3513 2838 3513 2113 
z
" transform="scale(0.015625)"/>
        <path id="DejaVuSans-6f" d="M 1959 3097 
Q 1497 3097 1228 2736 
Q 959 2375 959 1747 
Q 959 1119 1226 758 
Q 1494 397 1959 397 
Q 2419 397 2687 759 
Q 2956 1122 2956 1747 
Q 2956 2369 2687 2733 
Q 2419 3097 1959 3097 
z
M 1959 3584 
Q 2709 3584 3137 3096 
Q 3566 2609 3566 1747 
Q 3566 888 3137 398 
Q 2709 -91 1959 -91 
Q 1206 -91 779 398 
Q 353 888 353 1747 
Q 353 2609 779 3096 
Q 1206 3584 1959 3584 
z
" transform="scale(0.015625)"/>
        <path id="DejaVuSans-73" d="M 2834 3397 
L 2834 2853 
Q 2591 2978 2328 3040 
Q 2066 3103 1784 3103 
Q 1356 3103 1142 2972 
Q 928 2841 928 2578 
Q 928 2378 1081 2264 
Q 1234 2150 1697 2047 
L 1894 2003 
Q 2506 1872 2764 1633 
Q 3022 1394 3022 966 
Q 3022 478 2636 193 
Q 2250 -91 1575 -91 
Q 1294 -91 989 -36 
Q 684 19 347 128 
L 347 722 
Q 666 556 975 473 
Q 1284 391 1588 391 
Q 1994 391 2212 530 
Q 2431 669 2431 922 
Q 2431 1156 2273 1281 
Q 2116 1406 1581 1522 
L 1381 1569 
Q 847 1681 609 1914 
Q 372 2147 372 2553 
Q 372 3047 722 3315 
Q 1072 3584 1716 3584 
Q 2034 3584 2315 3537 
Q 2597 3491 2834 3397 
z
" transform="scale(0.015625)"/>
       </defs>
       <use xlink:href="#DejaVuSans-49"/>
       <use xlink:href="#DejaVuSans-64" x="29.492188"/>
       <use xlink:href="#DejaVuSans-65" x="92.96875"/>
       <use xlink:href="#DejaVuSans-61" x="154.492188"/>
       <use xlink:href="#DejaVuSans-20" x="215.771484"/>
       <use xlink:href="#DejaVuSans-53" x="247.558594"/>
       <use xlink:href="#DejaVuSans-68" x="311.035156"/>
       <use xlink:href="#DejaVuSans-6f" x="374.414062"/>
       <use xlink:href="#DejaVuSans-70" x="435.595703"/>
       <use xlink:href="#DejaVuSans-73" x="499.072266"/>
      </g>
      <!-- (empty credential divs) -->
      <g transform="translate(7.2 300.786844)scale(0.1 -0.1)">
       <defs>
        <path id="DejaVuSans-28" d="M 1984 4856 
Q 1566 4138 1362 3434 
Q 1159 2731 1159 2009 
Q 1159 1288 1364 580 
Q 1569 -128 1984 -844 
L 1484 -844 
Q 1016 -109 783 600 
Q 550 1309 550 2009 
Q 550 2706 781 3412 
Q 1013 4119 1484 4856 
L 1984 4856 
z
" transform="scale(0.015625)"/>
        <path id="DejaVuSans-6d" d="M 3328 2828 
Q 3544 3216 3844 3400 
Q 4144 3584 4550 3584 
Q 5097 3584 5394 3201 
Q 5691 2819 5691 2113 
L 5691 0 
L 5113 0 
L 5113 2094 
Q 5113 2597 4934 2840 
Q 4756 3084 4391 3084 
Q 3944 3084 3684 2787 
Q 3425 2491 3425 1978 
L 3425 0 
L 2847 0 
L 2847 2094 
Q 2847 2600 2669 2842 
Q 2491 3084 2119 3084 
Q 1678 3084 1418 2786 
Q 1159 2488 1159 1978 
L 1159 0 
L 581 0 
L 581 3500 
L 1159 3500 
L 1159 2956 
Q 1356 3278 1631 3431 
Q 1906 3584 2284 3584 
Q 2666 3584 2933 3390 
Q 3200 3197 3328 2828 
z
" transform="scale(0.015625)"/>
        <path id="DejaVuSans-79" d="M 2059 -325 
Q 1816 -950 1584 -1140 
Q 1353 -1331 966 -1331 
L 506 -1331 
L 506 -850 
L 844 -850 
Q 1081 -850 1212 -737 
Q 1344 -625 1503 -206 
L 1606 56 
L 191 3500 
L 800 3500 
L 1894 763 
L 2988 3500 
L 3597 3500 
L 2059 -325 
z
" transform="scale(0.015625)"/>
        <path id="DejaVuSans-72" d="M 2631 2963 
Q 2534 3019 2420 3045 
Q 2306 3072 2169 3072 
Q 1681 3072 1420 2755 
Q 1159 2438 1159 1844 
L 1159 0 
L 581 0 
L 581 3500 
L 1159 3500 
L 1159 2956 
Q 1341 3275 1631 3429 
Q 1922 3584 2338 3584 
Q 2397 3584 2469 3576 
Q 2541 3569 2628 3553 
L 2631 2963 
z
" transform="scale(0.015625)"/>
        <path id="DejaVuSans-6e" d="M 3513 2113 
L 3513 0 
L 2938 0 
L 2938 2094 
Q 2938 2591 2744 2837 
Q 2550 3084 2163 3084 
Q 1697 3084 1428 2787 
Q 1159 2491 1159 1978 
L 1159 0 
L 581 0 
L 581 3500 
L 1159 3500 
L 1159 2956 
Q 1366 3272 1645 3428 
Q 1925 3584 2291 3584 
Q 2894 3584 3203 3211 
Q 3513 2838 3513 2113 
z
" transform="scale(0.015625)"/>
        <path id="DejaVuSans-69" d="M 603 3500 
L 1178 3500 
L 1178 0 
L 603 0 
L 603 3500 
z
M 603 4863 
L 1178 4863 
L 1178 4134 
L 603 4134 
L 603 4863 
z
" transform="scale(0.015625)"/>
        <path id="DejaVuSans-6c" d="M 603 4863 
L 1178 4863 
L 1178 0 
L 603 0 
L 603 4863 
z
" transform="scale(0.015625)"/>
        <path id="DejaVuSans-76" d="M 191 3500 
L 800 3500 
L 1894 563 
L 2988 3500 
L 3597 3500 
L 2284 0 
L 1503 0 
L 191 3500 
z
" transform="scale(0.015625)"/>
        <path id="DejaVuSans-29" d="M 513 4856 
L 1013 4856 
Q 1481 4119 1714 3412 
Q 1947 2706 1947 2009 
Q 1947 1309 1714 600 
Q 1481 -109 1013 -844 
L 513 -844 
Q 928 -128 1133 580 
Q 1338 1288 1338 2009 
Q 1338 2731 1133 3434 
Q 928 4138 513 4856 
z
" transform="scale(0.015625)"/>
       </defs>
       <use xlink:href="#DejaVuSans-28"/>
       <use xlink:href="#DejaVuSans-65" x="39.013672"/>
       <use xlink:href="#DejaVuSans-6d" x="100.537109"/>
       <use xlink:href="#DejaVuSans-70" x="197.949219"/>
       <use xlink:href="#DejaVuSans-74" x="261.425781"/>
       <use xlink:href="#DejaVuSans-79" x="300.634766"/>
       <use xlink:href="#DejaVuSans-20" x="359.814453"/>
       <use xlink:href="#DejaVuSans-63" x="391.601562"/>
       <use xlink:href="#DejaVuSans-72" x="446.582031"/>
       <use xlink:href="#DejaVuSans-65" x="485.445312"/>
       <use xlink:href="#DejaVuSans-64" x="546.96875"/>
       <use xlink:href="#DejaVuSans-65" x="610.445312"/>
       <use xlink:href="#DejaVuSans-6e" x="671.96875"/>
       <use xlink:href="#DejaVuSans-74" x="735.347656"/>
       <use xlink:href="#DejaVuSans-69" x="774.556641"/>
       <use xlink:href="#DejaVuSans-61" x="802.339844"/>
       <use xlink:href="#DejaVuSans-6c" x="863.619141"/>
       <use xlink:href="#DejaVuSans-20" x="891.402344"/>
       <use xlink:href="#DejaVuSans-64" x="923.189453"/>
       <use xlink:href="#DejaVuSans-69" x="986.666016"/>
       <use xlink:href="#DejaVuSans-76" x="1014.449219"/>
       <use xlink:href="#DejaVuSans-73" x="1073.628906"/>
       <use xlink:href="#DejaVuSans-29" x="1125.728516"/>
      </g>
     </g>
    </g>
    <g id="ytick_2">
     <g id="line2d_4">
      <g>
       <use xlink:href="#mc159cbebe4" x="130.676562" y="217.270875" style="stroke: #000000; stroke-width: 0.8"/>
      </g>
     </g>
     <g id="text_4">
      <!-- Shadyside Variety -->
      <g transform="translate(33.853125 216.231031)scale(0.1 -0.1)">
       <defs>
        <path id="DejaVuSans-56" d="M 1831 0 
L 50 4666 
L 709 4666 
L 2188 738 
L 3669 4666 
L 4325 4666 
L 2547 0 
L 1831 0 
z
" transform="scale(0.015625)"/>
       </defs>
       <use xlink:href="#DejaVuSans-53"/>
       <use xlink:href="#DejaVuSans-68" x="63.476562"/>
       <use xlink:href="#DejaVuSans-61" x="126.855469"/>
       <use xlink:href="#DejaVuSans-64" x="188.134766"/>
       <use xlink:href="#DejaVuSans-79" x="251.611328"/>
       <use xlink:href="#DejaVuSans-73" x="310.791016"/>
       <use xlink:href="#DejaVuSans-69" x="362.890625"/>
       <use xlink:href="#DejaVuSans-64" x="390.673828"/>
       <use xlink:href="#DejaVuSans-65" x="454.150391"/>
       <use xlink:href="#DejaVuSans-20" x="515.673828"/>
       <use xlink:href="#DejaVuSans-56" x="547.460938"/>
       <use xlink:href="#DejaVuSans-61" x="608.119141"/>
       <use xlink:href="#DejaVuSans-72" x="669.398438"/>
       <use xlink:href="#DejaVuSans-69" x="710.511719"/>
       <use xlink:href="#DejaVuSans-65" x="738.294922"/>
       <use xlink:href="#DejaVuSans-74" x="799.818359"/>
       <use xlink:href="#DejaVuSans-79" x="839.027344"/>
      </g>
      <!-- (transform:scale(0)) -->
      <g transform="translate(23.55 227.428844)scale(0.1 -0.1)">
       <defs>
        <path id="DejaVuSans-66" d="M 2375 4863 
L 2375 4384 
L 1825 4384 
Q 1516 4384 1395 4259 
Q 1275 4134 1275 3809 
L 1275 3500 
L 2222 3500 
L 2222 3053 
L 1275 3053 
L 1275 0 
L 697 0 
L 697 3053 
L 147 3053 
L 147 3500 
L 697 3500 
L 697 3744 
Q 697 4328 969 4595 
Q 1241 4863 1831 4863 
L 2375 4863 
z
" transform="scale(0.015625)"/>
        <path id="DejaVuSans-3a" d="M 750 794 
L 1409 794 
L 1409 0 
L 750 0 
L 750 794 
z
M 750 3309 
L 1409 3309 
L 1409 2516 
L 750 2516 
L 750 3309 
z
" transform="scale(0.015625)"/>
        <path id="DejaVuSans-30" d="M 2034 4250 
Q 1547 4250 1301 3770 
Q 1056 3291 1056 2328 
Q 1056 1369 1301 889 
Q 1547 409 2034 409 
Q 2525 409 2770 889 
Q 3016 1369 3016 2328 
Q 3016 3291 2770 3770 
Q 2525 4250 2034 4250 
z
M 2034 4750 
Q 2819 4750 3233 4129 
Q 3647 3509 3647 2328 
Q 3647 1150 3233 529 
Q 2819 -91 2034 -91 
Q 1250 -91 836 529 
Q 422 1150 422 2328 
Q 422 3509 836 4129 
Q 1250 4750 2034 4750 
z
" transform="scale(0.015625)"/>
       </defs>
       <use xlink:href="#DejaVuSans-28"/>
       <use xlink:href="#DejaVuSans-74" x="39.013672"/>
       <use xlink:href="#DejaVuSans-72" x="78.222656"/>
       <use xlink:href="#DejaVuSans-61" x="119.335938"/>
       <use xlink:href="#DejaVuSans-6e" x="180.615234"/>
       <use xlink:href="#DejaVuSans-73" x="243.994141"/>
       <use xlink:href="#DejaVuSans-66" x="296.09375"/>
       <use xlink:href="#DejaVuSans-6f" x="331.298828"/>
       <use xlink:href="#DejaVuSans-72" x="392.480469"/>
       <use xlink:href="#DejaVuSans-6d" x="431.84375"/>
       <use xlink:href="#DejaVuSans-3a" x="529.255859"/>
       <use xlink:href="#DejaVuSans-73" x="562.947266"/>
       <use xlink:href="#DejaVuSans-63" x="615.046875"/>
       <use xlink:href="#DejaVuSans-61" x="670.027344"/>
       <use xlink:href="#DejaVuSans-6c" x="731.306641"/>
       <use xlink:href="#DejaVuSans-65" x="759.089844"/>
       <use xlink:href="#DejaVuSans-28" x="820.613281"/>
       <use xlink:href="#DejaVuSans-30" x="859.626953"/>
       <use xlink:href="#DejaVuSans-29" x="923.25"/>
       <use xlink:href="#DejaVuSans-29" x="962.263672"/>
      </g>
     </g>
    </g>
    <g id="ytick_3">
     <g id="line2d_5">
      <g>
       <use xlink:href="#mc159cbebe4" x="130.676562" y="143.912875" style="stroke: #000000; stroke-width: 0.8"/>
      </g>
     </g>
     <g id="text_5">
      <!-- Maser Galleries -->
      <g transform="translate(46.43125 142.873031)scale(0.1 -0.1)">
       <defs>
        <path id="DejaVuSans-4d" d="M 628 4666 
L 1569 4666 
L 2759 1491 
L 3956 4666 
L 4897 4666 
L 4897 0 
L 4281 0 
L 4281 4097 
L 3078 897 
L 2444 897 
L 1241 4097 
L 1241 0 
L 628 0 
L 628 4666 
z
" transform="scale(0.015625)"/>
       </defs>
       <use xlink:href="#DejaVuSans-4d"/>
       <use xlink:href="#DejaVuSans-61" x="86.279297"/>
       <use xlink:href="#DejaVuSans-73" x="147.558594"/>
       <use xlink:href="#DejaVuSans-65" x="199.658203"/>
       <use xlink:href="#DejaVuSans-72" x="261.181641"/>
       <use xlink:href="#DejaVuSans-20" x="302.294922"/>
       <use xlink:href="#DejaVuSans-47" x="334.082031"/>
       <use xlink:href="#DejaVuSans-61" x="411.572266"/>
       <use xlink:href="#DejaVuSans-6c" x="472.851562"/>
       <use xlink:href="#DejaVuSans-6c" x="500.634766"/>
       <use xlink:href="#DejaVuSans-65" x="528.417969"/>
       <use xlink:href="#DejaVuSans-72" x="589.941406"/>
       <use xlink:href="#DejaVuSans-69" x="631.054688"/>
       <use xlink:href="#DejaVuSans-65" x="658.837891"/>
       <use xlink:href="#DejaVuSans-73" x="720.361328"/>
      </g>
      <!-- (roster max-height) -->
      <g transform="translate(26.026562 154.070844)scale(0.1 -0.1)">
       <defs>
        <path id="DejaVuSans-78" d="M 3513 3500 
L 2247 1797 
L 3578 0 
L 2900 0 
L 1881 1375 
L 863 0 
L 184 0 
L 1544 1831 
L 300 3500 
L 978 3500 
L 1906 2253 
L 2834 3500 
L 3513 3500 
z
" transform="scale(0.015625)"/>
        <path id="DejaVuSans-2d" d="M 313 2009 
L 1997 2009 
L 1997 1497 
L 313 1497 
L 313 2009 
z
" transform="scale(0.015625)"/>
        <path id="DejaVuSans-67" d="M 2906 1791 
Q 2906 2416 2648 2759 
Q 2391 3103 1925 3103 
Q 1463 3103 1205 2759 
Q 947 2416 947 1791 
Q 947 1169 1205 825 
Q 1463 481 1925 481 
Q 2391 481 2648 825 
Q 2906 1169 2906 1791 
z
M 3481 434 
Q 3481 -459 3084 -895 
Q 2688 -1331 1869 -1331 
Q 1566 -1331 1297 -1286 
Q 1028 -1241 775 -1147 
L 775 -588 
Q 1028 -725 1275 -790 
Q 1522 -856 1778 -856 
Q 2344 -856 2625 -561 
Q 2906 -266 2906 331 
L 2906 616 
Q 2728 306 2450 153 
Q 2172 0 1784 0 
Q 1141 0 747 490 
Q 353 981 353 1791 
Q 353 2603 747 3093 
Q 1141 3584 1784 3584 
Q 2172 3584 2450 3431 
Q 2728 3278 2906 2969 
L 2906 3500 
L 3481 3500 
L 3481 434 
z
" transform="scale(0.015625)"/>
       </defs>
       <use xlink:href="#DejaVuSans-28"/>
       <use xlink:href="#DejaVuSans-72" x="39.013672"/>
       <use xlink:href="#DejaVuSans-6f" x="77.876953"/>
       <use xlink:href="#DejaVuSans-73" x="139.058594"/>
       <use xlink:href="#DejaVuSans-74" x="191.158203"/>
       <use xlink:href="#DejaVuSans-65" x="230.367188"/>
       <use xlink:href="#DejaVuSans-72" x="291.890625"/>
       <use xlink:href="#DejaVuSans-20" x="333.003906"/>
       <use xlink:href="#DejaVuSans-6d" x="364.791016"/>
       <use xlink:href="#DejaVuSans-61" x="462.203125"/>
       <use xlink:href="#DejaVuSans-78" x="523.482422"/>
       <use xlink:href="#DejaVuSans-2d" x="582.662109"/>
       <use xlink:href="#DejaVuSans-68" x="618.746094"/>
       <use xlink:href="#DejaVuSans-65" x="682.125"/>
       <use xlink:href="#DejaVuSans-69" x="743.648438"/>
       <use xlink:href="#DejaVuSans-67" x="771.431641"/>
       <use xlink:href="#DejaVuSans-68" x="834.908203"/>
       <use xlink:href="#DejaVuSans-74" x="898.287109"/>
       <use xlink:href="#DejaVuSans-29" x="937.496094"/>
      </g>
     </g>
    </g>
    <g id="ytick_4">
     <g id="line2d_6">
      <g>
       <use xlink:href="#mc159cbebe4" x="130.676562" y="70.554875" style="stroke: #000000; stroke-width: 0.8"/>
      </g>
     </g>
     <g id="text_6">
      <!-- Kards Unlimited -->
      <g transform="translate(44.340625 69.515031)scale(0.1 -0.1)">
       <defs>
        <path id="DejaVuSans-4b" d="M 628 4666 
L 1259 4666 
L 1259 2694 
L 3353 4666 
L 4166 4666 
L 1850 2491 
L 4331 0 
L 3500 0 
L 1259 2247 
L 1259 0 
L 628 0 
L 628 4666 
z
" transform="scale(0.015625)"/>
       </defs>
       <use xlink:href="#DejaVuSans-4b"/>
       <use xlink:href="#DejaVuSans-61" x="63.826172"/>
       <use xlink:href="#DejaVuSans-72" x="125.105469"/>
       <use xlink:href="#DejaVuSans-64" x="164.46875"/>
       <use xlink:href="#DejaVuSans-73" x="227.945312"/>
       <use xlink:href="#DejaVuSans-20" x="280.044922"/>
       <use xlink:href="#DejaVuSans-55" x="311.832031"/>
       <use xlink:href="#DejaVuSans-6e" x="385.025391"/>
       <use xlink:href="#DejaVuSans-6c" x="448.404297"/>
       <use xlink:href="#DejaVuSans-69" x="476.1875"/>
       <use xlink:href="#DejaVuSans-6d" x="503.970703"/>
       <use xlink:href="#DejaVuSans-69" x="601.382812"/>
       <use xlink:href="#DejaVuSans-74" x="629.166016"/>
       <use xlink:href="#DejaVuSans-65" x="668.375"/>
       <use xlink:href="#DejaVuSans-64" x="729.898438"/>
      </g>
      <!-- (testimonial height:0) -->
      <g transform="translate(15.226562 80.712844)scale(0.1 -0.1)">
       <use xlink:href="#DejaVuSans-28"/>
       <use xlink:href="#DejaVuSans-74" x="39.013672"/>
       <use xlink:href="#DejaVuSans-65" x="78.222656"/>
       <use xlink:href="#DejaVuSans-73" x="139.746094"/>
       <use xlink:href="#DejaVuSans-74" x="191.845703"/>
       <use xlink:href="#DejaVuSans-69" x="231.054688"/>
       <use xlink:href="#DejaVuSans-6d" x="258.837891"/>
       <use xlink:href="#DejaVuSans-6f" x="356.25"/>
       <use xlink:href="#DejaVuSans-6e" x="417.431641"/>
       <use xlink:href="#DejaVuSans-69" x="480.810547"/>
       <use xlink:href="#DejaVuSans-61" x="508.59375"/>
       <use xlink:href="#DejaVuSans-6c" x="569.873047"/>
       <use xlink:href="#DejaVuSans-20" x="597.65625"/>
       <use xlink:href="#DejaVuSans-68" x="629.443359"/>
       <use xlink:href="#DejaVuSans-65" x="692.822266"/>
       <use xlink:href="#DejaVuSans-69" x="754.345703"/>
       <use xlink:href="#DejaVuSans-67" x="782.128906"/>
       <use xlink:href="#DejaVuSans-68" x="845.605469"/>
       <use xlink:href="#DejaVuSans-74" x="908.984375"/>
       <use xlink:href="#DejaVuSans-3a" x="948.193359"/>
       <use xlink:href="#DejaVuSans-30" x="981.884766"/>
       <use xlink:href="#DejaVuSans-29" x="1045.507812"/>
      </g>
     </g>
    </g>
   </g>
   <g id="patch_11">
    <path d="M 130.676562 327.307875 
L 130.676562 33.875875 
" style="fill: none; stroke: #000000; stroke-width: 0.8; stroke-linejoin: miter; stroke-linecap: square"/>
   </g>
   <g id="patch_12">
    <path d="M 561.436562 327.307875 
L 561.436562 33.875875 
" style="fill: none; stroke: #000000; stroke-width: 0.8; stroke-linejoin: miter; stroke-linecap: square"/>
   </g>
   <g id="patch_13">
    <path d="M 130.676562 327.307875 
L 561.436562 327.307875 
" style="fill: none; stroke: #000000; stroke-width: 0.8; stroke-linejoin: miter; stroke-linecap: square"/>
   </g>
   <g id="patch_14">
    <path d="M 130.676562 33.875875 
L 561.436562 33.875875 
" style="fill: none; stroke: #000000; stroke-width: 0.8; stroke-linejoin: miter; stroke-linecap: square"/>
   </g>
   <g id="text_7">
    <!-- FAIL -->
    <g transform="translate(221.907812 294.492)scale(0.14 -0.14)">
     <defs>
      <path id="DejaVuSans-Bold-46" d="M 588 4666 
L 3834 4666 
L 3834 3756 
L 1791 3756 
L 1791 2888 
L 3713 2888 
L 3713 1978 
L 1791 1978 
L 1791 0 
L 588 0 
L 588 4666 
z
" transform="scale(0.015625)"/>
      <path id="DejaVuSans-Bold-41" d="M 3419 850 
L 1538 850 
L 1241 0 
L 31 0 
L 1759 4666 
L 3194 4666 
L 4922 0 
L 3713 0 
L 3419 850 
z
M 1838 1716 
L 3116 1716 
L 2478 3572 
L 1838 1716 
z
" transform="scale(0.015625)"/>
      <path id="DejaVuSans-Bold-49" d="M 588 4666 
L 1791 4666 
L 1791 0 
L 588 0 
L 588 4666 
z
" transform="scale(0.015625)"/>
      <path id="DejaVuSans-Bold-4c" d="M 588 4666 
L 1791 4666 
L 1791 909 
L 3903 909 
L 3903 0 
L 588 0 
L 588 4666 
z
" transform="scale(0.015625)"/>
     </defs>
     <use xlink:href="#DejaVuSans-Bold-46"/>
     <use xlink:href="#DejaVuSans-Bold-41" x="56.810547"/>
     <use xlink:href="#DejaVuSans-Bold-49" x="134.203125"/>
     <use xlink:href="#DejaVuSans-Bold-4c" x="171.410156"/>
    </g>
   </g>
   <g id="text_8">
    <!-- FAIL -->
    <g transform="translate(437.287812 294.492)scale(0.14 -0.14)">
     <use xlink:href="#DejaVuSans-Bold-46"/>
     <use xlink:href="#DejaVuSans-Bold-41" x="56.810547"/>
     <use xlink:href="#DejaVuSans-Bold-49" x="134.203125"/>
     <use xlink:href="#DejaVuSans-Bold-4c" x="171.410156"/>
    </g>
   </g>
   <g id="text_9">
    <!-- FAIL -->
    <g transform="translate(221.907812 221.134)scale(0.14 -0.14)">
     <use xlink:href="#DejaVuSans-Bold-46"/>
     <use xlink:href="#DejaVuSans-Bold-41" x="56.810547"/>
     <use xlink:href="#DejaVuSans-Bold-49" x="134.203125"/>
     <use xlink:href="#DejaVuSans-Bold-4c" x="171.410156"/>
    </g>
   </g>
   <g id="text_10">
    <!-- PASS -->
    <g transform="translate(434.07 221.134)scale(0.14 -0.14)">
     <defs>
      <path id="DejaVuSans-Bold-50" d="M 588 4666 
L 2584 4666 
Q 3475 4666 3951 4270 
Q 4428 3875 4428 3144 
Q 4428 2409 3951 2014 
Q 3475 1619 2584 1619 
L 1791 1619 
L 1791 0 
L 588 0 
L 588 4666 
z
M 1791 3794 
L 1791 2491 
L 2456 2491 
Q 2806 2491 2997 2661 
Q 3188 2831 3188 3144 
Q 3188 3456 2997 3625 
Q 2806 3794 2456 3794 
L 1791 3794 
z
" transform="scale(0.015625)"/>
      <path id="DejaVuSans-Bold-53" d="M 3834 4519 
L 3834 3531 
Q 3450 3703 3084 3790 
Q 2719 3878 2394 3878 
Q 1963 3878 1756 3759 
Q 1550 3641 1550 3391 
Q 1550 3203 1689 3098 
Q 1828 2994 2194 2919 
L 2706 2816 
Q 3484 2659 3812 2340 
Q 4141 2022 4141 1434 
Q 4141 663 3683 286 
Q 3225 -91 2284 -91 
Q 1841 -91 1394 -6 
Q 947 78 500 244 
L 500 1259 
Q 947 1022 1364 901 
Q 1781 781 2169 781 
Q 2563 781 2772 912 
Q 2981 1044 2981 1288 
Q 2981 1506 2839 1625 
Q 2697 1744 2272 1838 
L 1806 1941 
Q 1106 2091 782 2419 
Q 459 2747 459 3303 
Q 459 4000 909 4375 
Q 1359 4750 2203 4750 
Q 2588 4750 2994 4692 
Q 3400 4634 3834 4519 
z
" transform="scale(0.015625)"/>
     </defs>
     <use xlink:href="#DejaVuSans-Bold-50"/>
     <use xlink:href="#DejaVuSans-Bold-41" x="64.166016"/>
     <use xlink:href="#DejaVuSans-Bold-53" x="141.558594"/>
     <use xlink:href="#DejaVuSans-Bold-53" x="209.080078"/>
    </g>
   </g>
   <g id="text_11">
    <!-- ★ reverse -->
    <g transform="translate(431.267656 243.228872)scale(0.09 -0.09)">
     <defs>
      <path id="DejaVuSans-Oblique-2605" d="M 416 2850 
L 2288 2850 
L 2869 4628 
L 3453 2850 
L 5322 2850 
L 3809 1747 
L 4391 -28 
L 2869 1072 
L 1350 -28 
L 1928 1747 
L 416 2850 
z
" transform="scale(0.015625)"/>
      <path id="DejaVuSans-Oblique-20" transform="scale(0.015625)"/>
      <path id="DejaVuSans-Oblique-72" d="M 2853 2969 
Q 2766 3016 2653 3041 
Q 2541 3066 2413 3066 
Q 1953 3066 1609 2717 
Q 1266 2369 1153 1784 
L 800 0 
L 225 0 
L 909 3500 
L 1484 3500 
L 1375 2956 
Q 1603 3259 1920 3421 
Q 2238 3584 2597 3584 
Q 2691 3584 2781 3573 
Q 2872 3563 2963 3538 
L 2853 2969 
z
" transform="scale(0.015625)"/>
      <path id="DejaVuSans-Oblique-65" d="M 3078 2063 
Q 3088 2113 3092 2166 
Q 3097 2219 3097 2272 
Q 3097 2653 2873 2875 
Q 2650 3097 2266 3097 
Q 1838 3097 1509 2826 
Q 1181 2556 1013 2059 
L 3078 2063 
z
M 3578 1613 
L 903 1613 
Q 884 1494 878 1425 
Q 872 1356 872 1306 
Q 872 872 1139 634 
Q 1406 397 1894 397 
Q 2269 397 2603 481 
Q 2938 566 3225 728 
L 3116 159 
Q 2806 34 2476 -28 
Q 2147 -91 1806 -91 
Q 1078 -91 686 257 
Q 294 606 294 1247 
Q 294 1794 489 2264 
Q 684 2734 1063 3103 
Q 1306 3334 1642 3459 
Q 1978 3584 2356 3584 
Q 2950 3584 3301 3228 
Q 3653 2872 3653 2272 
Q 3653 2128 3634 1964 
Q 3616 1800 3578 1613 
z
" transform="scale(0.015625)"/>
      <path id="DejaVuSans-Oblique-76" d="M 459 3500 
L 1069 3500 
L 1581 525 
L 3256 3500 
L 3866 3500 
L 1875 0 
L 1100 0 
L 459 3500 
z
" transform="scale(0.015625)"/>
      <path id="DejaVuSans-Oblique-73" d="M 3200 3397 
L 3091 2853 
Q 2863 2978 2609 3040 
Q 2356 3103 2088 3103 
Q 1634 3103 1373 2948 
Q 1113 2794 1113 2528 
Q 1113 2219 1719 2053 
Q 1766 2041 1788 2034 
L 1972 1978 
Q 2547 1819 2739 1644 
Q 2931 1469 2931 1166 
Q 2931 609 2489 259 
Q 2047 -91 1331 -91 
Q 1053 -91 747 -37 
Q 441 16 72 128 
L 184 722 
Q 500 559 806 475 
Q 1113 391 1394 391 
Q 1816 391 2080 572 
Q 2344 753 2344 1031 
Q 2344 1331 1650 1516 
L 1591 1531 
L 1394 1581 
Q 956 1697 753 1886 
Q 550 2075 550 2369 
Q 550 2928 970 3256 
Q 1391 3584 2113 3584 
Q 2397 3584 2667 3537 
Q 2938 3491 3200 3397 
z
" transform="scale(0.015625)"/>
     </defs>
     <use xlink:href="#DejaVuSans-Oblique-2605"/>
     <use xlink:href="#DejaVuSans-Oblique-20" x="89.648438"/>
     <use xlink:href="#DejaVuSans-Oblique-72" x="121.435547"/>
     <use xlink:href="#DejaVuSans-Oblique-65" x="162.548828"/>
     <use xlink:href="#DejaVuSans-Oblique-76" x="224.072266"/>
     <use xlink:href="#DejaVuSans-Oblique-65" x="283.251953"/>
     <use xlink:href="#DejaVuSans-Oblique-72" x="344.775391"/>
     <use xlink:href="#DejaVuSans-Oblique-73" x="385.888672"/>
     <use xlink:href="#DejaVuSans-Oblique-65" x="437.988281"/>
    </g>
   </g>
   <g id="text_12">
    <!-- FAIL -->
    <g transform="translate(221.907812 147.776)scale(0.14 -0.14)">
     <use xlink:href="#DejaVuSans-Bold-46"/>
     <use xlink:href="#DejaVuSans-Bold-41" x="56.810547"/>
     <use xlink:href="#DejaVuSans-Bold-49" x="134.203125"/>
     <use xlink:href="#DejaVuSans-Bold-4c" x="171.410156"/>
    </g>
   </g>
   <g id="text_13">
    <!-- FAIL -->
    <g transform="translate(437.287812 147.776)scale(0.14 -0.14)">
     <use xlink:href="#DejaVuSans-Bold-46"/>
     <use xlink:href="#DejaVuSans-Bold-41" x="56.810547"/>
     <use xlink:href="#DejaVuSans-Bold-49" x="134.203125"/>
     <use xlink:href="#DejaVuSans-Bold-4c" x="171.410156"/>
    </g>
   </g>
   <g id="text_14">
    <!-- FAIL -->
    <g transform="translate(221.907812 74.418)scale(0.14 -0.14)">
     <use xlink:href="#DejaVuSans-Bold-46"/>
     <use xlink:href="#DejaVuSans-Bold-41" x="56.810547"/>
     <use xlink:href="#DejaVuSans-Bold-49" x="134.203125"/>
     <use xlink:href="#DejaVuSans-Bold-4c" x="171.410156"/>
    </g>
   </g>
   <g id="text_15">
    <!-- FAIL -->
    <g transform="translate(437.287812 74.418)scale(0.14 -0.14)">
     <use xlink:href="#DejaVuSans-Bold-46"/>
     <use xlink:href="#DejaVuSans-Bold-41" x="56.810547"/>
     <use xlink:href="#DejaVuSans-Bold-49" x="134.203125"/>
     <use xlink:href="#DejaVuSans-Bold-4c" x="171.410156"/>
    </g>
   </g>
   <g id="text_16">
    <!-- Judge verdict on mutation-target criterion -->
    <g transform="translate(231.128047 15.558281)scale(0.11 -0.11)">
     <defs>
      <path id="DejaVuSans-4a" d="M 628 4666 
L 1259 4666 
L 1259 325 
Q 1259 -519 939 -900 
Q 619 -1281 -91 -1281 
L -331 -1281 
L -331 -750 
L -134 -750 
Q 284 -750 456 -515 
Q 628 -281 628 325 
L 628 4666 
z
" transform="scale(0.015625)"/>
      <path id="DejaVuSans-75" d="M 544 1381 
L 544 3500 
L 1119 3500 
L 1119 1403 
Q 1119 906 1312 657 
Q 1506 409 1894 409 
Q 2359 409 2629 706 
Q 2900 1003 2900 1516 
L 2900 3500 
L 3475 3500 
L 3475 0 
L 2900 0 
L 2900 538 
Q 2691 219 2414 64 
Q 2138 -91 1772 -91 
Q 1169 -91 856 284 
Q 544 659 544 1381 
z
M 1991 3584 
L 1991 3584 
z
" transform="scale(0.015625)"/>
     </defs>
     <use xlink:href="#DejaVuSans-4a"/>
     <use xlink:href="#DejaVuSans-75" x="29.492188"/>
     <use xlink:href="#DejaVuSans-64" x="92.871094"/>
     <use xlink:href="#DejaVuSans-67" x="156.347656"/>
     <use xlink:href="#DejaVuSans-65" x="219.824219"/>
     <use xlink:href="#DejaVuSans-20" x="281.347656"/>
     <use xlink:href="#DejaVuSans-76" x="313.134766"/>
     <use xlink:href="#DejaVuSans-65" x="372.314453"/>
     <use xlink:href="#DejaVuSans-72" x="433.837891"/>
     <use xlink:href="#DejaVuSans-64" x="473.201172"/>
     <use xlink:href="#DejaVuSans-69" x="536.677734"/>
     <use xlink:href="#DejaVuSans-63" x="564.460938"/>
     <use xlink:href="#DejaVuSans-74" x="619.441406"/>
     <use xlink:href="#DejaVuSans-20" x="658.650391"/>
     <use xlink:href="#DejaVuSans-6f" x="690.4375"/>
     <use xlink:href="#DejaVuSans-6e" x="751.619141"/>
     <use xlink:href="#DejaVuSans-20" x="814.998047"/>
     <use xlink:href="#DejaVuSans-6d" x="846.785156"/>
     <use xlink:href="#DejaVuSans-75" x="944.197266"/>
     <use xlink:href="#DejaVuSans-74" x="1007.576172"/>
     <use xlink:href="#DejaVuSans-61" x="1046.785156"/>
     <use xlink:href="#DejaVuSans-74" x="1108.064453"/>
     <use xlink:href="#DejaVuSans-69" x="1147.273438"/>
     <use xlink:href="#DejaVuSans-6f" x="1175.056641"/>
     <use xlink:href="#DejaVuSans-6e" x="1236.238281"/>
     <use xlink:href="#DejaVuSans-2d" x="1299.617188"/>
     <use xlink:href="#DejaVuSans-74" x="1335.701172"/>
     <use xlink:href="#DejaVuSans-61" x="1374.910156"/>
     <use xlink:href="#DejaVuSans-72" x="1436.189453"/>
     <use xlink:href="#DejaVuSans-67" x="1475.552734"/>
     <use xlink:href="#DejaVuSans-65" x="1539.029297"/>
     <use xlink:href="#DejaVuSans-74" x="1600.552734"/>
     <use xlink:href="#DejaVuSans-20" x="1639.761719"/>
     <use xlink:href="#DejaVuSans-63" x="1671.548828"/>
     <use xlink:href="#DejaVuSans-72" x="1726.529297"/>
     <use xlink:href="#DejaVuSans-69" x="1767.642578"/>
     <use xlink:href="#DejaVuSans-74" x="1795.425781"/>
     <use xlink:href="#DejaVuSans-65" x="1834.634766"/>
     <use xlink:href="#DejaVuSans-72" x="1896.158203"/>
     <use xlink:href="#DejaVuSans-69" x="1937.271484"/>
     <use xlink:href="#DejaVuSans-6f" x="1965.054688"/>
     <use xlink:href="#DejaVuSans-6e" x="2026.236328"/>
    </g>
    <!-- (FAIL = mutation caught = correct; PASS = false-pass) -->
    <g transform="translate(196.444531 27.875875)scale(0.11 -0.11)">
     <defs>
      <path id="DejaVuSans-46" d="M 628 4666 
L 3309 4666 
L 3309 4134 
L 1259 4134 
L 1259 2759 
L 3109 2759 
L 3109 2228 
L 1259 2228 
L 1259 0 
L 628 0 
L 628 4666 
z
" transform="scale(0.015625)"/>
      <path id="DejaVuSans-4c" d="M 628 4666 
L 1259 4666 
L 1259 531 
L 3531 531 
L 3531 0 
L 628 0 
L 628 4666 
z
" transform="scale(0.015625)"/>
      <path id="DejaVuSans-3d" d="M 678 2906 
L 4684 2906 
L 4684 2381 
L 678 2381 
L 678 2906 
z
M 678 1631 
L 4684 1631 
L 4684 1100 
L 678 1100 
L 678 1631 
z
" transform="scale(0.015625)"/>
      <path id="DejaVuSans-3b" d="M 750 3309 
L 1409 3309 
L 1409 2516 
L 750 2516 
L 750 3309 
z
M 750 794 
L 1409 794 
L 1409 256 
L 897 -744 
L 494 -744 
L 750 256 
L 750 794 
z
" transform="scale(0.015625)"/>
      <path id="DejaVuSans-50" d="M 1259 4147 
L 1259 2394 
L 2053 2394 
Q 2494 2394 2734 2622 
Q 2975 2850 2975 3272 
Q 2975 3691 2734 3919 
Q 2494 4147 2053 4147 
L 1259 4147 
z
M 628 4666 
L 2053 4666 
Q 2838 4666 3239 4311 
Q 3641 3956 3641 3272 
Q 3641 2581 3239 2228 
Q 2838 1875 2053 1875 
L 1259 1875 
L 1259 0 
L 628 0 
L 628 4666 
z
" transform="scale(0.015625)"/>
     </defs>
     <use xlink:href="#DejaVuSans-28"/>
     <use xlink:href="#DejaVuSans-46" x="39.013672"/>
     <use xlink:href="#DejaVuSans-41" x="87.408203"/>
     <use xlink:href="#DejaVuSans-49" x="155.816406"/>
     <use xlink:href="#DejaVuSans-4c" x="185.308594"/>
     <use xlink:href="#DejaVuSans-20" x="241.021484"/>
     <use xlink:href="#DejaVuSans-3d" x="272.808594"/>
     <use xlink:href="#DejaVuSans-20" x="356.597656"/>
     <use xlink:href="#DejaVuSans-6d" x="388.384766"/>
     <use xlink:href="#DejaVuSans-75" x="485.796875"/>
     <use xlink:href="#DejaVuSans-74" x="549.175781"/>
     <use xlink:href="#DejaVuSans-61" x="588.384766"/>
     <use xlink:href="#DejaVuSans-74" x="649.664062"/>
     <use xlink:href="#DejaVuSans-69" x="688.873047"/>
     <use xlink:href="#DejaVuSans-6f" x="716.65625"/>
     <use xlink:href="#DejaVuSans-6e" x="777.837891"/>
     <use xlink:href="#DejaVuSans-20" x="841.216797"/>
     <use xlink:href="#DejaVuSans-63" x="873.003906"/>
     <use xlink:href="#DejaVuSans-61" x="927.984375"/>
     <use xlink:href="#DejaVuSans-75" x="989.263672"/>
     <use xlink:href="#DejaVuSans-67" x="1052.642578"/>
     <use xlink:href="#DejaVuSans-68" x="1116.119141"/>
     <use xlink:href="#DejaVuSans-74" x="1179.498047"/>
     <use xlink:href="#DejaVuSans-20" x="1218.707031"/>
     <use xlink:href="#DejaVuSans-3d" x="1250.494141"/>
     <use xlink:href="#DejaVuSans-20" x="1334.283203"/>
     <use xlink:href="#DejaVuSans-63" x="1366.070312"/>
     <use xlink:href="#DejaVuSans-6f" x="1421.050781"/>
     <use xlink:href="#DejaVuSans-72" x="1482.232422"/>
     <use xlink:href="#DejaVuSans-72" x="1521.595703"/>
     <use xlink:href="#DejaVuSans-65" x="1560.458984"/>
     <use xlink:href="#DejaVuSans-63" x="1621.982422"/>
     <use xlink:href="#DejaVuSans-74" x="1676.962891"/>
     <use xlink:href="#DejaVuSans-3b" x="1716.171875"/>
     <use xlink:href="#DejaVuSans-20" x="1749.863281"/>
     <use xlink:href="#DejaVuSans-50" x="1781.650391"/>
     <use xlink:href="#DejaVuSans-41" x="1835.578125"/>
     <use xlink:href="#DejaVuSans-53" x="1903.986328"/>
     <use xlink:href="#DejaVuSans-53" x="1967.462891"/>
     <use xlink:href="#DejaVuSans-20" x="2030.939453"/>
     <use xlink:href="#DejaVuSans-3d" x="2062.726562"/>
     <use xlink:href="#DejaVuSans-20" x="2146.515625"/>
     <use xlink:href="#DejaVuSans-66" x="2178.302734"/>
     <use xlink:href="#DejaVuSans-61" x="2213.507812"/>
     <use xlink:href="#DejaVuSans-6c" x="2274.787109"/>
     <use xlink:href="#DejaVuSans-73" x="2302.570312"/>
     <use xlink:href="#DejaVuSans-65" x="2354.669922"/>
     <use xlink:href="#DejaVuSans-2d" x="2416.193359"/>
     <use xlink:href="#DejaVuSans-70" x="2452.277344"/>
     <use xlink:href="#DejaVuSans-61" x="2515.753906"/>
     <use xlink:href="#DejaVuSans-73" x="2577.033203"/>
     <use xlink:href="#DejaVuSans-73" x="2629.132812"/>
     <use xlink:href="#DejaVuSans-29" x="2681.232422"/>
    </g>
   </g>
  </g>
 </g>
 <defs>
  <clipPath id="p207f3721e8">
   <rect x="130.676562" y="33.875875" width="430.76" height="293.432"/>
  </clipPath>
 </defs>
</svg>
